<svg xmlns="http://www.w3.org/2000/svg" viewBox="0 0 770 433"><g fill="none" stroke-width="2"><path stroke="#f3bc8b" d="M.56 0Q.22.3.22.76q0 169.57.06 339.21a.53.47-90 0 0 .47.53h259.5a1.29.46-38.9 0 0 .66-.23q.16-.09.34-.06" vector-effect="non-scaling-stroke"/><path stroke="#8c9cc1" d="M261.25 340.21q.74.29 1 .29 233.09.01 466-.01a.5.49 0 0 0 .5-.49V.75a.54.47 0 0 0-.54-.47L261.5.29" vector-effect="non-scaling-stroke"/><path stroke="#f3bc8b" d="M261.5.29 260.31 0" vector-effect="non-scaling-stroke"/><path stroke="#dadae2" d="M752.459 47.766a24 17.94 89 0 0 17.518-24.31A24 17.94 89 0 0 751.621-.225a24 17.94 89 0 0-17.518 24.31 24 17.94 89 0 0 18.356 23.682" vector-effect="non-scaling-stroke"/><path stroke="#8c9cc1" d="M22.8 416.44q-3.01-.52-4.56-3.15-1.95-3.32-1.74-8.31.87-20.96 2.02-42.03a.66.53-88 0 0-.52-.7H2.75a.66.6-89 0 0-.6.64Q1.58 386.94 1 410.12c-.32 12.47 5.6 20.62 18.75 22.12 8 .91 18.07-.22 23.85-6.02 5.31-5.33 5.62-12.6 5.87-19.73q.74-21.76 2.11-43.59a.61.58-88.2 0 0-.58-.65H35.5a.57.45 90 0 0-.45.57q-.08 14.26-1.21 40.75c-.29 6.82-2.01 14.42-11.04 12.87m70.71-39.33 13.49.82a.87.72 2.9 0 0 .91-.68l.58-14.5a.49.48 1.1 0 0-.49-.5H62.75a.45.33 1.3 0 0-.44.31l-.59 15.19a.48.27-2.1 0 0 .51.26l14.26-.89a.61.5 89.3 0 1 .53.63q-.53 26.4-2.33 52.74a.71.57-87.3 0 0 .56.76H91a.75.46-90 0 0 .46-.75q-.05-26.4 1.63-52.75a.67.38-86.6 0 1 .42-.64m43.47-14.295a.27.27 0 0 0-.26-.28l-15.608-.6a.27.27 0 0 0-.28.26l-2.632 68.49a.27.27 0 0 0 .26.28l15.608.6a.27.27 0 0 0 .28-.26l2.632-68.49M191.31 381c.29 0 7.47 45.44 8.15 49.71a.64.53 84.3 0 0 .54.54h11.5a.84.66-81.3 0 0 .68-.64c1.07-4.3 12.69-50.4 13.11-50.36a.26.14-89 0 1 .13.25q-.34 25.15-1.91 50.25a.48.43 1 0 0 .49.46l14.25-.21a.5.43-90 0 0 .43-.5q.16-33.89 1.55-67.75a.48.48-88.9 0 0-.48-.5H218.5a.68.64-83.2 0 0-.63.53L208 404q-.69 2.87-1.14-.23l-5.98-40.75a.89.59 84.4 0 0-.63-.77H179.5a.57.52 1 0 0-.57.5q-1.1 34.07-4.41 68a.48.46 2.2 0 0 .48.5h12.75a.79.29-87.3 0 0 .32-.76l2.82-49.25a.43.26 1.3 0 1 .42-.24m288.23-18.196a.26.26 0 0 0-.25-.27l-14.748-.592a.26.26 0 0 0-.27.249l-2.752 68.505a.26.26 0 0 0 .25.27l14.748.592a.26.26 0 0 0 .27-.249l2.752-68.505M535 403.97l18 .35a.59.39-88.2 0 0 .41-.57l.51-14.75a.67.56.8 0 0-.67-.58l-17.75.16a.55.53-89 0 1-.54-.58l.36-9.69a.66.48-88.8 0 1 .49-.64l21.2.28a.75.47 1.3 0 0 .75-.45l.54-14.75a.55.48 1 0 0-.55-.5H520a.51.5 0 0 0-.51.5q-.21 33.91-2.48 67.75a.63.5-87.4 0 0 .49.68l15.5.1a.79.48-88.6 0 0 .5-.78l.81-26.07a.68.47 1 0 1 .69-.46m179.19-26.6c-38.84-4.82-38.03 63.27-7.14 54.35q3.22-.93 4.96-2.95 1.04-1.19.98.39-.08 2.54 1.77 2.15 3.15-.66 12.21-.15a.44.43 2.6 0 0 .46-.41l2.9-67.82a.66.35-88 0 0-.33-.68h-14.25a.52.44-88.7 0 0-.44.5l-.39 14.32a.67.36 5.9 0 1-.73.3m-382.94 14.38H339a.52.48-88.8 0 0 .48-.5l.49-12.25a.71.49-87.9 0 0-.47-.75h-7.75a.59.56.5 0 1-.59-.57l.34-11.43a.54.44 84.3 0 0-.56-.56l-12.93 3.85a.86.75-7.9 0 0-.61.7l-.29 7.52a.61.51 1 0 1-.61.49H311a.77.42-88.8 0 0-.43.75l-.32 12.25a.5.49.6 0 0 .5.5h4.75a.71.51-87.5 0 1 .49.75q-.95 15.47-.69 26.47c.29 13.02 11.19 15.12 21.68 12.67a.72.69-5.1 0 0 .56-.64l.85-13.32a.68.66-6.8 0 0-.88-.67q-6.52 1.93-7.21-4.84-.47-4.7.48-19.86a.6.46-87.4 0 1 .47-.56m90.34 27.98c-3.57-7.77 5.54-8.65 10.37-10.5a.33.33-8.6 0 1 .45.33l-.99 20.43a1.31 1.11.8 0 0 1.33 1.16l13-.1a.58.41.5 0 0 .58-.4q.84-20.03 1.18-40.45c.29-17.1-21.41-14.59-31.7-11.04a1.1 1.08 84.1 0 0-.73.91l-1.5 13.44q-.12 1.02.81.49c2.38-1.34 20.44-7.97 18.44-.1q-.67 2.6-3.2 3.49c-11.19 3.9-22.52 5.89-22.01 20.87.37 10.74 7.94 16.6 18.89 13.06a.77.73 87.7 0 0 .5-.57l2.12-10.08q.14-.67-.57-.39-3.11 1.27-6.27.28a1.49.6 71.9 0 1-.7-.83m220.9-35.98.01-5a.75.5 0 0 0-.75-.5h-13.5a.5.48-90 0 0-.48.5q.04 25.91-1.9 51.76a.61.4-86.9 0 0 .38.65l14.5.02a.52.48 1.1 0 0 .52-.46c.37-10.77.15-21.64 2.44-32.22 1.25-5.77 9.7-10.19 11.4-1.47 2.02 10.39.46 22.75-.14 33.39a.81.77-88.6 0 0 .78.86l13.94-.22a.53.43-89.2 0 0 .42-.51q.4-16.49 1.22-31.97c.41-7.8.13-18.19-9.08-20.93q-12.03-3.58-19.17 6.36-.59.82-.59-.26M283.3 425.17c.25.15.25 4.79.38 5.65a.58.46-4 0 0 .57.39l13.25-.2a.76.75-.8 0 0 .75-.76q-.19-25.7 1.84-51.32a.63.6-87.4 0 0-.59-.68H285a.58.46-89.4 0 0-.46.57c-.1 8.4.59 31.31-4.84 36.56-3.21 3.1-7.48 2.4-8.88-2.24q-1.05-3.46-.99-5.4l.97-28.75a.73.31-88.7 0 0-.3-.74h-14.25a.55.44-89.4 0 0-.44.54q-.45 21.58-.83 26.95c-.74 10.38-2.48 25.05 12.34 26.92q9.44 1.19 15.22-7.19a.69.48-56.5 0 1 .76-.3m96.45.33v4.75a.78.56-90 0 0 .56.78l13.69.05a.58.5 90 0 0 .5-.58q-.21-25.79 1.86-51.5a.7.62-87.4 0 0-.61-.75h-14.5a.65.42-90 0 0-.42.65q-.07 12.7-1.15 25.34-.4 4.8-2.25 9.19-1.02 2.42-3.47 3.36c-7.77 3.01-7.9-8.78-7.8-13.05q.31-12.46 1.06-24.95a.51.47-88.3 0 0-.47-.54h-14a.53.41 1.1 0 0-.52.39q-.91 21-1.23 40.33c-.12 7.12 4.5 12.26 11.5 13.52q10.11 1.81 16.56-7.11.69-.95.69.12m216.91 0 .08 5.25a.77.38.3 0 0 .76.38l13.25.04a.67.67 90 0 0 .67-.67q-.02-25.88 1.92-51.69a.59.52 1.8 0 0-.59-.56h-14.5a.73.51 89.5 0 0-.51.74c.09 6.33.34 32.82-4.71 36.51-9.03 6.59-9.9-5.88-9.83-11q.12-10.03 1.01-25.69a.53.46-88.3 0 0-.46-.56h-14a.65.63-89.5 0 0-.63.64q-.39 13.96-.86 27.91c-.25 7.3-1.76 20.86 6.44 24.2q13.27 5.41 21.42-5.62.53-.71.54.12" vector-effect="non-scaling-stroke"/><path stroke="#f3bc8b" d="M1.31 0q-.08.26.19.26Q129.78.35 258.06.12" vector-effect="non-scaling-stroke"/><path stroke="#7f584d" d="M261.5.29q-.03.27.03.51.22.83.22.94 0 167.22-.25 334.45 0 2.02-.25 4.02M142 150.81a1.19.89 12.6 0 0 .91-.41c11.38-16.91 17.79-35.42 10.13-55.53-6.01-15.75-15.65-27.46-19.35-40.16q-.41-1.39-.79.01c-2.81 10.32-10.63 23.36-14.66 30.24-13.35 22.84-8.6 44.22 5.05 65.33a.95.77 70.2 0 0 .71.43l18 .09m-39.35-45.63c-8.26-11.03-21.93-25.16-37.4-20.87a.76.76 66.4 0 0-.44 1.13l40.32 64.66a1.21.05 58.3 0 0 .66.97l4.23.38a1.2.99 79.3 0 0 .9-1.64q-8.2-20.84-7.82-43.3a2.3 1.91 31.6 0 0-.45-1.33m98.93-20.74c-15.75-4.16-29.23 9.42-37.57 20.9a1.66 1.13-35.9 0 0-.33.91q.36 22.97-8.16 44.26a.57.36-74.8 0 0 .23.74h4.75a1.27.53-63.1 0 0 .81-.69l40.62-65.13a.68.63-66.3 0 0-.35-.99M78.26 123.35q-17.07-3.27-29.33 8.24-2.11 1.99.48 2.75 23.9 7.08 46 18.52 1.59.83.63-.66-8.87-13.74-16.65-28.11a1.75 1.29-3.1 0 0-1.13-.74m140.67 9.69c-9.33-9.26-18.21-11.83-30.48-9.77a1.61 1.55-80 0 0-1.11.81q-7.97 14.8-17.14 28.89-.46.71.29.31 23.17-12.06 48.27-19.26.4-.11.42-.19a.9.9-62.6 0 0-.25-.79M86.09 157.63q-11.37-3.05-21.15-9.57a.9.86-48.5 0 0-1.05.09q-13.08 11.47-18.35 28.12-.16.5.4.17 19.01-11.24 40.07-17.91 1.58-.5.08-.9m116.75-9.46a1.05.97-40.7 0 0-1.23-.04q-9.67 6.51-20.95 9.47-.79.2-.02.52 6.07 2.54 12.22 4.91 14.34 5.52 27.67 13.19.81.47.49-.51-5.27-16.34-18.18-27.54m-25.1 24.38a.34.34-9.3 0 1-.31.46l-89.8-.01a.34.34-77.8 0 1-.31-.49l5.47-11.57a.34.34-76.8 0 1 .31-.19h79.91a.34.34-9.6 0 1 .31.22l4.42 11.58m-19.5 15.69a.37.37 18.4 0 0 .15.3l39.19 29.14a.37.37-27.7 0 1-.22.67l-130.07.21a.37.37-70.1 0 1-.2-.68l41.23-27.12a.37.37 73.2 0 0 .17-.31l.01-9.54a.37.37 89.6 0 1 .37-.37l49.02-.04a.37.37 0 0 1 .37.37l-.02 7.37m-69.46 40.04a.35.35-72.2 0 0-.29-.56l-12.11.07a.35.35-18.1 0 0-.28.55l6.1 8.26a.35.35-45.8 0 0 .56 0l6.02-8.32m8.26-.28q-1.8-2.44-3.52.29l-7.44 11.79a.87.57 48.4 0 0 .12.83c2.94 4.21 8.23 13.7 12.14 8.52q3.27-4.33 6.57-8.91a1.59 1.09-48.5 0 0 .2-1.61L97.04 228m17.97.25a.34.34 17.8 0 0-.28-.54l-12.09.09a.34.34-17.7 0 0-.27.54l6.11 8.3a.34.34 44.2 0 0 .55-.01l5.98-8.38m7.7.54q-2.37-3.25-4.75.44l-6.95 10.8a.94.52 50.1 0 0 .17.87c2.88 4.15 8.17 13.41 11.89 8.84q3.79-4.67 7.02-9.79a.92.61-51 0 0 .08-.88l-7.46-10.28m15.97-.54a.34.34-72.4 0 0-.28-.54l-12.06.08a.34.34 72 0 0-.28.54l6.1 8.28a.34.34-47.4 0 0 .55 0l5.97-8.36m7.53.07q-2.05-2.8-4.05.35l-7 11.02a1.56 1.38 44.4 0 0 .12 1.66c2.23 3.02 7.84 13.56 12.16 7.85q3.43-4.53 6.58-9.25a.84.52-50.2 0 0 .12-.81l-7.93-10.82m15.71.14a.48.48-73.1 0 0-.39-.75l-11.58.08a.48.48-18.1 0 0-.39.76l5.85 7.97a.48.48 0 0 0 .78 0l5.73-8.06m8.34-.43q-1.77-2.4-3.57.41l-7.42 11.57a.81.81 43.2 0 0 .03.92c2.08 2.72 8.22 13.96 12.2 8.59q3.53-4.75 6.94-9.48a.82.55-49.2 0 0 .1-.82l-8.28-11.19m17.56.15a.31.31 17.7 0 0-.26-.48l-12.01.1a.31.31-11.2 0 0-.25.49l6.08 8.46a.31.31 43.4 0 0 .5 0l5.94-8.57m-121.57.55a.48.48.3 0 1 .48-.48h5.18a.48.48-18.7 0 1 .38.19l8.17 10.96a.48.48 45.5 0 1 0 .57l-6.98 9.53a.48.48-71.3 0 1-.41.2l-6.36-.26a.48.48-88.8 0 1-.46-.48v-20.23m132.25 20.59a.52.52-88.8 0 1-.55.52l-6.4-.35a.52.52 73.5 0 1-.39-.21l-6.78-9.21a.52.52 44.5 0 1 0-.62l8.12-10.99a.52.52 17.3 0 1 .42-.21h5.06a.52.52-90 0 1 .52.52v20.55m-120.9.98a.42.42 18.1 0 0 .33.66l9.36.07a.42.42-20.7 0 0 .35-.66L83 243.86a.42.42 0 0 0-.68 0l-4.72 6.44m73.19-.12a.47.47 17.8 0 0 .37.75l9.2.17a.47.47-17.2 0 0 .4-.73l-4.48-6.49a.47.47-38.1 0 0-.76-.01l-4.73 6.31m25.33.03a.47.47-71.5 0 0 .37.74l9.23.1a.47.47 70.7 0 0 .39-.74l-4.55-6.46a.47.47 0 0 0-.76-.01l-4.68 6.37M104 250.1a.56.56 18 0 0 .45.89l8.82.03a.56.56 70.7 0 0 .46-.89l-4.39-6.07a.56.56 44 0 0-.91-.01L104 250.1m23.75.13a.47.47-72.3 0 0 .38.75l9.2.03a.47.47-17.7 0 0 .38-.74l-4.57-6.33a.47.47 45.2 0 0-.76 0l-4.63 6.29m-22.39 34.73c8.41-6.22 10.63 1.9 18.25 1.39q1.44-.1 4.54-1.3c6.82-2.64 9.56-1.5 15.66 1.69q2.14 1.12 4.36.15c6.77-2.98 10.26-5.83 17.68-1.86q.41.22.9.22H178a1.47 1.43-71.2 0 0 1.16-.59l18.05-24.46q.7-.95-.46-.95H70.25q-.87 0-.41.67l17.17 24.84a1.1.68 65.2 0 0 .74.49h16.75a1.55 1.37-60.2 0 0 .86-.29m-2.18 21.36q28.34.2 56.66-.14c1.23-.01 3.63.93 4.6-.26q1.81-2.21 7.34-11.17.51-.83-.1-.8l-5.93.3a1.36.75-15.1 0 1-.86-.21c-4.13-3.38-7.42-2.71-11.84-.18-7.87 4.53-11.86-.63-19.54-1.27q-6.21-.51-11.64 2.91a1.95 1.75-59.5 0 1-.91.29c-7.45.21-9.87-7.9-18.03-1.53a1.63.86 12.9 0 1-.93.25l-6-.01q-.78-.01-.38.65l6.67 10.82a1.14.6-6.2 0 0 .89.35" vector-effect="non-scaling-stroke"/><path stroke="#8c9cc1" d="M611.14 41.3c-.79 17.25-1.35 34.44-1.82 51.7a.49.49-89.4 0 0 .49.5q26.51-.02 53.01.02c1.65.01 4.29.39 6.63 0a.62.52-5.4 0 0 .51-.52l1.7-51.75a.49.41-89.3 0 0-.41-.5h-59.5a.61.58 1.5 0 0-.61.55M497.92 171.56q-1.08 25.69-2.12 51.38c-.95 23.61-2.82 55.02 21.46 68.31 17.6 9.64 42.54 6.94 60.66-.45a1.36 1.26 83.6 0 0 .78-1.06l7.82-62.49a.91.83 86.6 0 0-1.05-1.02c-4.78 1.43-14.53 4.2-19.2 1.98-6.25-2.97-6.43-12.86-6.3-18.96q.39-17.91 1.22-37.21a1.09 1.06-88.6 0 1 1.06-1.04h23.25a.53.52 1.1 0 0 .53-.5l2.3-59.19a.58.54 1 0 0-.58-.56H563.5a.97.95 1.4 0 1-.97-1l2.12-49.44a.3.28-7.6 0 0-.39-.27L508.01 75.8a.96.68-9.6 0 0-.7.7l-1.19 33.68a.62.59 1 0 1-.62.57H485a.54.52 1.1 0 0-.54.5l-2.32 59.07a.65.61-88.7 0 0 .61.68h14.75a.54.42-88.7 0 1 .42.56m103.5 120.75q10.51.27 21.03.17c13.86-.14 27.78.23 41.72-.12a.52.5-.6 0 0 .51-.5c.51-64.43 1.76-121.17 5.45-181.47a.88.81 1.5 0 0-.88-.86l-61.5.02a.77.7 0 0 0-.77.7q.07 90.85-5.99 181.5a.52.45-87.1 0 0 .43.56M399.75 274.5V292a.5.5 0 0 0 .5.5H461a1.28 1.24-.2 0 0 1.28-1.25q-.4-90.12 6.21-180a.49.48 1.7 0 0-.49-.51l-63.75.02a.53.46-89.4 0 0-.46.52c-.26 31.07-.18 63.41-4.91 94.14q-1.37 8.87-6.27 16.19c-3.89 5.82-12.22 7.29-16.79 1.99-4.01-4.66-5.17-14.55-5.15-20.85q.15-45.83 3.03-91.4a.56.46-87.7 0 0-.45-.6H311.5a.56.41-89.3 0 0-.41.55q-1.37 57.39-3.5 114.76c-.69 18.37-.26 43.86 12.87 58.8 11.04 12.56 31.71 14.29 46.81 11.37 15.17-2.92 21.79-10.91 31.82-21.8q.66-.71.66.07" vector-effect="non-scaling-stroke"/><path stroke="#dadae2" d="M751.762 47.407a23.41 17.23 90.9 0 0 17.596-23.136A23.41 17.23 90.9 0 0 752.498.593a23.41 17.23 90.9 0 0-17.596 23.136 23.41 17.23 90.9 0 0 16.86 23.678" vector-effect="non-scaling-stroke"/><path stroke="#948bb5" d="M756.01 24.56q7.33-3.7 4.17-11.8-1.33-3.4-4.49-3.45l-10.95-.16a.6.48-89.5 0 0-.49.6V37a.78.46 88.2 0 0 .51.8l1.76-.22a.86.54 88 0 0 .48-.83v-11a.68.6-8.8 0 1 .5-.6c6.89-1.84 9.3 6.96 11.42 11.75a1.16.35 68.3 0 0 .65.82l2.43.04a.52.43 78.4 0 0 .37-.69q-2.37-6.46-6.4-11.98a.39.3 56.8 0 1 .04-.53" vector-effect="non-scaling-stroke"/><path stroke="#948bb5" d="M757.65 19.45q1.47-3.52-1.05-6.3a1.34.36 51.9 0 0-.84-.63l-8.25-.37a.84.49-89.4 0 0-.51.85v8a.81.49 89.7 0 0 .5.81l7.25-.2q2.02-.06 2.9-2.16" vector-effect="non-scaling-stroke"/><path stroke="#8c9cc1" d="M706.81 418.04c8.68.32 7.51-21.05 7.56-26.46a.63.61-83.2 0 0-.47-.62c-17.05-4.07-17.13 26.72-7.09 27.08" vector-effect="non-scaling-stroke"/></g><path fill="#fff" d="M0 0h.56Q.22.3.22.76q0 169.57.06 339.21a.53.47-90 0 0 .47.53h259.5a1.29.46-38.9 0 0 .66-.23q.16-.09.34-.06.74.29 1 .29 233.09.01 466-.01a.5.49 0 0 0 .5-.49V.75a.54.47 0 0 0-.54-.47L261.5.29 260.31 0H770v433H0V0Zm752.459 47.766a24 17.94 89 0 0 17.518-24.31A24 17.94 89 0 0 751.621-.225a24 17.94 89 0 0-17.518 24.31 24 17.94 89 0 0 18.356 23.682ZM22.8 416.44q-3.01-.52-4.56-3.15-1.95-3.32-1.74-8.31.87-20.96 2.02-42.03a.66.53-88 0 0-.52-.7H2.75a.66.6-89 0 0-.6.64Q1.58 386.94 1 410.12c-.32 12.47 5.6 20.62 18.75 22.12 8 .91 18.07-.22 23.85-6.02 5.31-5.33 5.62-12.6 5.87-19.73q.74-21.76 2.11-43.59a.61.58-88.2 0 0-.58-.65H35.5a.57.45 90 0 0-.45.57q-.08 14.26-1.21 40.75c-.29 6.82-2.01 14.42-11.04 12.87Zm70.71-39.33 13.49.82a.87.72 2.9 0 0 .91-.68l.58-14.5a.49.48 1.1 0 0-.49-.5H62.75a.45.33 1.3 0 0-.44.31l-.59 15.19a.48.27-2.1 0 0 .51.26l14.26-.89a.61.5 89.3 0 1 .53.63q-.53 26.4-2.33 52.74a.71.57-87.3 0 0 .56.76H91a.75.46-90 0 0 .46-.75q-.05-26.4 1.63-52.75a.67.38-86.6 0 1 .42-.64Zm43.47-14.295a.27.27 0 0 0-.26-.28l-15.608-.6a.27.27 0 0 0-.28.26l-2.632 68.49a.27.27 0 0 0 .26.28l15.608.6a.27.27 0 0 0 .28-.26l2.632-68.49ZM191.31 381c.29 0 7.47 45.44 8.15 49.71a.64.53 84.3 0 0 .54.54h11.5a.84.66-81.3 0 0 .68-.64c1.07-4.3 12.69-50.4 13.11-50.36a.26.14-89 0 1 .13.25q-.34 25.15-1.91 50.25a.48.43 1 0 0 .49.46l14.25-.21a.5.43-90 0 0 .43-.5q.16-33.89 1.55-67.75a.48.48-88.9 0 0-.48-.5H218.5a.68.64-83.2 0 0-.63.53L208 404q-.69 2.87-1.14-.23l-5.98-40.75a.89.59 84.4 0 0-.63-.77H179.5a.57.52 1 0 0-.57.5q-1.1 34.07-4.41 68a.48.46 2.2 0 0 .48.5h12.75a.79.29-87.3 0 0 .32-.76l2.82-49.25a.43.26 1.3 0 1 .42-.24Zm288.23-18.196a.26.26 0 0 0-.25-.27l-14.748-.592a.26.26 0 0 0-.27.249l-2.752 68.505a.26.26 0 0 0 .25.27l14.748.592a.26.26 0 0 0 .27-.249l2.752-68.505ZM535 403.97l18 .35a.59.39-88.2 0 0 .41-.57l.51-14.75a.67.56.8 0 0-.67-.58l-17.75.16a.55.53-89 0 1-.54-.58l.36-9.69a.66.48-88.8 0 1 .49-.64l21.2.28a.75.47 1.3 0 0 .75-.45l.54-14.75a.55.48 1 0 0-.55-.5H520a.51.5 0 0 0-.51.5q-.21 33.91-2.48 67.75a.63.5-87.4 0 0 .49.68l15.5.1a.79.48-88.6 0 0 .5-.78l.81-26.07a.68.47 1 0 1 .69-.46Zm179.19-26.6c-38.84-4.82-38.03 63.27-7.14 54.35q3.22-.93 4.96-2.95 1.04-1.19.98.39-.08 2.54 1.77 2.15 3.15-.66 12.21-.15a.44.43 2.6 0 0 .46-.41l2.9-67.82a.66.35-88 0 0-.33-.68h-14.25a.52.44-88.7 0 0-.44.5l-.39 14.32a.67.36 5.9 0 1-.73.3Zm-382.94 14.38H339a.52.48-88.8 0 0 .48-.5l.49-12.25a.71.49-87.9 0 0-.47-.75h-7.75a.59.56.5 0 1-.59-.57l.34-11.43a.54.44 84.3 0 0-.56-.56l-12.93 3.85a.86.75-7.9 0 0-.61.7l-.29 7.52a.61.51 1 0 1-.61.49H311a.77.42-88.8 0 0-.43.75l-.32 12.25a.5.49.6 0 0 .5.5h4.75a.71.51-87.5 0 1 .49.75q-.95 15.47-.69 26.47c.29 13.02 11.19 15.12 21.68 12.67a.72.69-5.1 0 0 .56-.64l.85-13.32a.68.66-6.8 0 0-.88-.67q-6.52 1.93-7.21-4.84-.47-4.7.48-19.86a.6.46-87.4 0 1 .47-.56Zm90.34 27.98c-3.57-7.77 5.54-8.65 10.37-10.5a.33.33-8.6 0 1 .45.33l-.99 20.43a1.31 1.11.8 0 0 1.33 1.16l13-.1a.58.41.5 0 0 .58-.4q.84-20.03 1.18-40.45c.29-17.1-21.41-14.59-31.7-11.04a1.1 1.08 84.1 0 0-.73.91l-1.5 13.44q-.12 1.02.81.49c2.38-1.34 20.44-7.97 18.44-.1q-.67 2.6-3.2 3.49c-11.19 3.9-22.52 5.89-22.01 20.87.37 10.74 7.94 16.6 18.89 13.06a.77.73 87.7 0 0 .5-.57l2.12-10.08q.14-.67-.57-.39-3.11 1.27-6.27.28a1.49.6 71.9 0 1-.7-.83Zm220.9-35.98.01-5a.75.5 0 0 0-.75-.5h-13.5a.5.48-90 0 0-.48.5q.04 25.91-1.9 51.76a.61.4-86.9 0 0 .38.65l14.5.02a.52.48 1.1 0 0 .52-.46c.37-10.77.15-21.64 2.44-32.22 1.25-5.77 9.7-10.19 11.4-1.47 2.02 10.39.46 22.75-.14 33.39a.81.77-88.6 0 0 .78.86l13.94-.22a.53.43-89.2 0 0 .42-.51q.4-16.49 1.22-31.97c.41-7.8.13-18.19-9.08-20.93q-12.03-3.58-19.17 6.36-.59.82-.59-.26ZM283.3 425.17c.25.15.25 4.79.38 5.65a.58.46-4 0 0 .57.39l13.25-.2a.76.75-.8 0 0 .75-.76q-.19-25.7 1.84-51.32a.63.6-87.4 0 0-.59-.68H285a.58.46-89.4 0 0-.46.57c-.1 8.4.59 31.31-4.84 36.56-3.21 3.1-7.48 2.4-8.88-2.24q-1.05-3.46-.99-5.4l.97-28.75a.73.31-88.7 0 0-.3-.74h-14.25a.55.44-89.4 0 0-.44.54q-.45 21.58-.83 26.95c-.74 10.38-2.48 25.05 12.34 26.92q9.44 1.19 15.22-7.19a.69.48-56.5 0 1 .76-.3Zm96.45.33v4.75a.78.56-90 0 0 .56.78l13.69.05a.58.5 90 0 0 .5-.58q-.21-25.79 1.86-51.5a.7.62-87.4 0 0-.61-.75h-14.5a.65.42-90 0 0-.42.65q-.07 12.7-1.15 25.34-.4 4.8-2.25 9.19-1.02 2.42-3.47 3.36c-7.77 3.01-7.9-8.78-7.8-13.05q.31-12.46 1.06-24.95a.51.47-88.3 0 0-.47-.54h-14a.53.41 1.1 0 0-.52.39q-.91 21-1.23 40.33c-.12 7.12 4.5 12.26 11.5 13.52q10.11 1.81 16.56-7.11.69-.95.69.12Zm216.91 0 .08 5.25a.77.38.3 0 0 .76.38l13.25.04a.67.67 90 0 0 .67-.67q-.02-25.88 1.92-51.69a.59.52 1.8 0 0-.59-.56h-14.5a.73.51 89.5 0 0-.51.74c.09 6.33.34 32.82-4.71 36.51-9.03 6.59-9.9-5.88-9.83-11q.12-10.03 1.01-25.69a.53.46-88.3 0 0-.46-.56h-14a.65.63-89.5 0 0-.63.64q-.39 13.96-.86 27.91c-.25 7.3-1.76 20.86 6.44 24.2q13.27 5.41 21.42-5.62.53-.71.54.12Z"/><path fill="#e67817" d="M.56 0h.75q-.08.26.19.26Q129.78.35 258.06.12l2.25-.12 1.19.29q-.03.27.03.51.22.83.22.94 0 167.22-.25 334.45 0 2.02-.25 4.02-.18-.03-.34.06a1.29.46-38.9 0 1-.66.23H.75a.53.47-90 0 1-.47-.53Q.22 170.33.22.76.22.3.56 0ZM142 150.81a1.19.89 12.6 0 0 .91-.41c11.38-16.91 17.79-35.42 10.13-55.53-6.01-15.75-15.65-27.46-19.35-40.16q-.41-1.39-.79.01c-2.81 10.32-10.63 23.36-14.66 30.24-13.35 22.84-8.6 44.22 5.05 65.33a.95.77 70.2 0 0 .71.43l18 .09Zm-39.35-45.63c-8.26-11.03-21.93-25.16-37.4-20.87a.76.76 66.4 0 0-.44 1.13l40.32 64.66a1.21.05 58.3 0 0 .66.97l4.23.38a1.2.99 79.3 0 0 .9-1.64q-8.2-20.84-7.82-43.3a2.3 1.91 31.6 0 0-.45-1.33Zm98.93-20.74c-15.75-4.16-29.23 9.42-37.57 20.9a1.66 1.13-35.9 0 0-.33.91q.36 22.97-8.16 44.26a.57.36-74.8 0 0 .23.74h4.75a1.27.53-63.1 0 0 .81-.69l40.62-65.13a.68.63-66.3 0 0-.35-.99ZM78.26 123.35q-17.07-3.27-29.33 8.24-2.11 1.99.48 2.75 23.9 7.08 46 18.52 1.59.83.63-.66-8.87-13.74-16.65-28.11a1.75 1.29-3.1 0 0-1.13-.74Zm140.67 9.69c-9.33-9.26-18.21-11.83-30.48-9.77a1.61 1.55-80 0 0-1.11.81q-7.97 14.8-17.14 28.89-.46.71.29.31 23.17-12.06 48.27-19.26.4-.11.42-.19a.9.9-62.6 0 0-.25-.79ZM86.09 157.63q-11.37-3.05-21.15-9.57a.9.86-48.5 0 0-1.05.09q-13.08 11.47-18.35 28.12-.16.5.4.17 19.01-11.24 40.07-17.91 1.58-.5.08-.9Zm116.75-9.46a1.05.97-40.7 0 0-1.23-.04q-9.67 6.51-20.95 9.47-.79.2-.02.52 6.07 2.54 12.22 4.91 14.34 5.52 27.67 13.19.81.47.49-.51-5.27-16.34-18.18-27.54Zm-25.1 24.38a.34.34-9.3 0 1-.31.46l-89.8-.01a.34.34-77.8 0 1-.31-.49l5.47-11.57a.34.34-76.8 0 1 .31-.19h79.91a.34.34-9.6 0 1 .31.22l4.42 11.58Zm-19.5 15.69a.37.37 18.4 0 0 .15.3l39.19 29.14a.37.37-27.7 0 1-.22.67l-130.07.21a.37.37-70.1 0 1-.2-.68l41.23-27.12a.37.37 73.2 0 0 .17-.31l.01-9.54a.37.37 89.6 0 1 .37-.37l49.02-.04a.37.37 0 0 1 .37.37l-.02 7.37Zm-69.46 40.04a.35.35-72.2 0 0-.29-.56l-12.11.07a.35.35-18.1 0 0-.28.55l6.1 8.26a.35.35-45.8 0 0 .56 0l6.02-8.32Zm8.26-.28q-1.8-2.44-3.52.29l-7.44 11.79a.87.57 48.4 0 0 .12.83c2.94 4.21 8.23 13.7 12.14 8.52q3.27-4.33 6.57-8.91a1.59 1.09-48.5 0 0 .2-1.61L97.04 228Zm17.97.25a.34.34 17.8 0 0-.28-.54l-12.09.09a.34.34-17.7 0 0-.27.54l6.11 8.3a.34.34 44.2 0 0 .55-.01l5.98-8.38Zm7.7.54q-2.37-3.25-4.75.44l-6.95 10.8a.94.52 50.1 0 0 .17.87c2.88 4.15 8.17 13.41 11.89 8.84q3.79-4.67 7.02-9.79a.92.61-51 0 0 .08-.88l-7.46-10.28Zm15.97-.54a.34.34-72.4 0 0-.28-.54l-12.06.08a.34.34 72 0 0-.28.54l6.1 8.28a.34.34-47.4 0 0 .55 0l5.97-8.36Zm7.53.07q-2.05-2.8-4.05.35l-7 11.02a1.56 1.38 44.4 0 0 .12 1.66c2.23 3.02 7.84 13.56 12.16 7.85q3.43-4.53 6.58-9.25a.84.52-50.2 0 0 .12-.81l-7.93-10.82Zm15.71.14a.48.48-73.1 0 0-.39-.75l-11.58.08a.48.48-18.1 0 0-.39.76l5.85 7.97a.48.48 0 0 0 .78 0l5.73-8.06Zm8.34-.43q-1.77-2.4-3.57.41l-7.42 11.57a.81.81 43.2 0 0 .03.92c2.08 2.72 8.22 13.96 12.2 8.59q3.53-4.75 6.94-9.48a.82.55-49.2 0 0 .1-.82l-8.28-11.19Zm17.56.15a.31.31 17.7 0 0-.26-.48l-12.01.1a.31.31-11.2 0 0-.25.49l6.08 8.46a.31.31 43.4 0 0 .5 0l5.94-8.57Zm-121.57.55a.48.48.3 0 1 .48-.48h5.18a.48.48-18.7 0 1 .38.19l8.17 10.96a.48.48 45.5 0 1 0 .57l-6.98 9.53a.48.48-71.3 0 1-.41.2l-6.36-.26a.48.48-88.8 0 1-.46-.48v-20.23Zm132.25 20.59a.52.52-88.8 0 1-.55.52l-6.4-.35a.52.52 73.5 0 1-.39-.21l-6.78-9.21a.52.52 44.5 0 1 0-.62l8.12-10.99a.52.52 17.3 0 1 .42-.21h5.06a.52.52-90 0 1 .52.52v20.55Zm-120.9.98a.42.42 18.1 0 0 .33.66l9.36.07a.42.42-20.7 0 0 .35-.66L83 243.86a.42.42 0 0 0-.68 0l-4.72 6.44Zm73.19-.12a.47.47 17.8 0 0 .37.75l9.2.17a.47.47-17.2 0 0 .4-.73l-4.48-6.49a.47.47-38.1 0 0-.76-.01l-4.73 6.31Zm25.33.03a.47.47-71.5 0 0 .37.74l9.23.1a.47.47 70.7 0 0 .39-.74l-4.55-6.46a.47.47 0 0 0-.76-.01l-4.68 6.37ZM104 250.1a.56.56 18 0 0 .45.89l8.82.03a.56.56 70.7 0 0 .46-.89l-4.39-6.07a.56.56 44 0 0-.91-.01L104 250.1Zm23.75.13a.47.47-72.3 0 0 .38.75l9.2.03a.47.47-17.7 0 0 .38-.74l-4.57-6.33a.47.47 45.2 0 0-.76 0l-4.63 6.29Zm-22.39 34.73c8.41-6.22 10.63 1.9 18.25 1.39q1.44-.1 4.54-1.3c6.82-2.64 9.56-1.5 15.66 1.69q2.14 1.12 4.36.15c6.77-2.98 10.26-5.83 17.68-1.86q.41.22.9.22H178a1.47 1.43-71.2 0 0 1.16-.59l18.05-24.46q.7-.95-.46-.95H70.25q-.87 0-.41.67l17.17 24.84a1.1.68 65.2 0 0 .74.49h16.75a1.55 1.37-60.2 0 0 .86-.29Zm-2.18 21.36q28.34.2 56.66-.14c1.23-.01 3.63.93 4.6-.26q1.81-2.21 7.34-11.17.51-.83-.1-.8l-5.93.3a1.36.75-15.1 0 1-.86-.21c-4.13-3.38-7.42-2.71-11.84-.18-7.87 4.53-11.86-.63-19.54-1.27q-6.21-.51-11.64 2.91a1.95 1.75-59.5 0 1-.91.29c-7.45.21-9.87-7.9-18.03-1.53a1.63.86 12.9 0 1-.93.25l-6-.01q-.78-.01-.38.65l6.67 10.82a1.14.6-6.2 0 0 .89.35Z"/><path fill="#fff" d="m1.31 0 256.75.12Q129.78.35 1.5.26q-.27 0-.19-.26Z"/><path fill="#183883" d="M261.5.29 728.21.28a.54.47 0 0 1 .54.47V340a.5.49 0 0 1-.5.49q-232.91.02-466 .01-.26 0-1-.29.25-2 .25-4.02.25-167.23.25-334.45 0-.11-.22-.94-.06-.24-.03-.51ZM611.14 41.3c-.79 17.25-1.35 34.44-1.82 51.7a.49.49-89.4 0 0 .49.5q26.51-.02 53.01.02c1.65.01 4.29.39 6.63 0a.62.52-5.4 0 0 .51-.52l1.7-51.75a.49.41-89.3 0 0-.41-.5h-59.5a.61.58 1.5 0 0-.61.55ZM497.92 171.56q-1.08 25.69-2.12 51.38c-.95 23.61-2.82 55.02 21.46 68.31 17.6 9.64 42.54 6.94 60.66-.45a1.36 1.26 83.6 0 0 .78-1.06l7.82-62.49a.91.83 86.6 0 0-1.05-1.02c-4.78 1.43-14.53 4.2-19.2 1.98-6.25-2.97-6.43-12.86-6.3-18.96q.39-17.91 1.22-37.21a1.09 1.06-88.6 0 1 1.06-1.04h23.25a.53.52 1.1 0 0 .53-.5l2.3-59.19a.58.54 1 0 0-.58-.56H563.5a.97.95 1.4 0 1-.97-1l2.12-49.44a.3.28-7.6 0 0-.39-.27L508.01 75.8a.96.68-9.6 0 0-.7.7l-1.19 33.68a.62.59 1 0 1-.62.57H485a.54.52 1.1 0 0-.54.5l-2.32 59.07a.65.61-88.7 0 0 .61.68h14.75a.54.42-88.7 0 1 .42.56Zm103.5 120.75q10.51.27 21.03.17c13.86-.14 27.78.23 41.72-.12a.52.5-.6 0 0 .51-.5c.51-64.43 1.76-121.17 5.45-181.47a.88.81 1.5 0 0-.88-.86l-61.5.02a.77.7 0 0 0-.77.7q.07 90.85-5.99 181.5a.52.45-87.1 0 0 .43.56ZM399.75 274.5V292a.5.5 0 0 0 .5.5H461a1.28 1.24-.2 0 0 1.28-1.25q-.4-90.12 6.21-180a.49.48 1.7 0 0-.49-.51l-63.75.02a.53.46-89.4 0 0-.46.52c-.26 31.07-.18 63.41-4.91 94.14q-1.37 8.87-6.27 16.19c-3.89 5.82-12.22 7.29-16.79 1.99-4.01-4.66-5.17-14.55-5.15-20.85q.15-45.83 3.03-91.4a.56.46-87.7 0 0-.45-.6H311.5a.56.41-89.3 0 0-.41.55q-1.37 57.39-3.5 114.76c-.69 18.37-.26 43.86 12.87 58.8 11.04 12.56 31.71 14.29 46.81 11.37 15.17-2.92 21.79-10.91 31.82-21.8q.66-.71.66.07Z"/><path fill="#b4b4c5" d="M752.459 47.766a24 17.94 89 0 1-18.356-23.683A24 17.94 89 0 1 751.62-.227a24 17.94 89 0 1 18.356 23.684 24 17.94 89 0 1-17.518 24.31Zm-.697-.359a23.41 17.23 90.9 0 0 17.596-23.136A23.41 17.23 90.9 0 0 752.498.593a23.41 17.23 90.9 0 0-17.596 23.136 23.41 17.23 90.9 0 0 16.86 23.678Z"/><path fill="#fff" d="M751.762 47.407a23.41 17.23 90.9 0 1-16.86-23.678A23.41 17.23 90.9 0 1 752.498.593a23.41 17.23 90.9 0 1 16.86 23.678 23.41 17.23 90.9 0 1-17.596 23.136Zm4.248-22.847q7.33-3.7 4.17-11.8-1.33-3.4-4.49-3.45l-10.95-.16a.6.48-89.5 0 0-.49.6V37a.78.46 88.2 0 0 .51.8l1.76-.22a.86.54 88 0 0 .48-.83v-11a.68.6-8.8 0 1 .5-.6c6.89-1.84 9.3 6.96 11.42 11.75a1.16.35 68.3 0 0 .65.82l2.43.04a.52.43 78.4 0 0 .37-.69q-2.37-6.46-6.4-11.98a.39.3 56.8 0 1 .04-.53Z"/><path fill="#28176a" d="M755.97 25.09q4.03 5.52 6.4 11.98a.52.43 78.4 0 1-.37.69l-2.43-.04a1.16.35 68.3 0 1-.65-.82c-2.12-4.79-4.53-13.59-11.42-11.75a.68.6-8.8 0 0-.5.6v11a.86.54 88 0 1-.48.83l-1.76.22a.78.46 88.2 0 1-.51-.8V9.75a.6.48-89.5 0 1 .49-.6l10.95.16q3.16.05 4.49 3.45 3.16 8.1-4.17 11.8a.39.3 56.8 0 0-.04.53Zm1.68-5.64q1.47-3.52-1.05-6.3a1.34.36 51.9 0 0-.84-.63l-8.25-.37a.84.49-89.4 0 0-.51.85v8a.81.49 89.7 0 0 .5.81l7.25-.2q2.02-.06 2.9-2.16Z"/><path fill="#fff" d="M757.65 19.45q-.88 2.1-2.9 2.16l-7.25.2a.81.49 89.7 0 1-.5-.81v-8a.84.49-89.4 0 1 .51-.85l8.25.37a1.34.36 51.9 0 1 .84.63q2.52 2.78 1.05 6.3ZM609.32 93c.47-17.26 1.03-34.45 1.82-51.7a.61.58 1.5 0 1 .61-.55h59.5a.49.41-89.3 0 1 .41.5L669.96 93a.62.52-5.4 0 1-.51.52c-2.34.39-4.98.01-6.63 0q-26.5-.04-53.01-.02a.49.49-89.4 0 1-.49-.5Z"/><path fill="#183883" d="m142 150.81-18-.09a.95.77 70.2 0 1-.71-.43c-13.65-21.11-18.4-42.49-5.05-65.33 4.03-6.88 11.85-19.92 14.66-30.24q.38-1.4.79-.01c3.7 12.7 13.34 24.41 19.35 40.16 7.66 20.11 1.25 38.62-10.13 55.53a1.19.89 12.6 0 1-.91.41Z"/><path fill="#fff" d="M497.5 171h-14.75a.65.61-88.7 0 1-.61-.68l2.32-59.07a.54.52 1.1 0 1 .54-.5h20.5a.62.59 1 0 0 .62-.57l1.19-33.68a.96.68-9.6 0 1 .7-.7l56.25-15.76a.3.28-7.6 0 1 .39.27l-2.12 49.44a.97.95 1.4 0 0 .97 1h24.25a.58.54 1 0 1 .58.56l-2.3 59.19a.53.52 1.1 0 1-.53.5h-23.25a1.09 1.06-88.6 0 0-1.06 1.04q-.83 19.3-1.22 37.21c-.13 6.1.05 15.99 6.3 18.96 4.67 2.22 14.42-.55 19.2-1.98a.91.83 86.6 0 1 1.05 1.02l-7.82 62.49a1.36 1.26 83.6 0 1-.78 1.06c-18.12 7.39-43.06 10.09-60.66.45-24.28-13.29-22.41-44.7-21.46-68.31q1.04-25.69 2.12-51.38a.54.42-88.7 0 0-.42-.56Z"/><path fill="#183883" d="M65.25 84.31c15.47-4.29 29.14 9.84 37.4 20.87a2.3 1.91 31.6 0 1 .45 1.33q-.38 22.46 7.82 43.3a1.2.99 79.3 0 1-.9 1.64l-4.23-.38a1.21.05 58.3 0 1-.66-.97L64.81 85.44a.76.76 66.4 0 1 .44-1.13Zm136.33.13a.68.63-66.3 0 1 .35.99l-40.62 65.13a1.27.53-63.1 0 1-.81.69h-4.75a.57.36-74.8 0 1-.23-.74q8.52-21.29 8.16-44.26a1.66 1.13-35.9 0 1 .33-.91c8.34-11.48 21.82-25.06 37.57-20.9Z"/><path fill="#fff" d="M601.42 292.31a.52.45-87.1 0 1-.43-.56q6.06-90.65 5.99-181.5a.77.7 0 0 1 .77-.7l61.5-.02a.88.81 1.5 0 1 .88.86c-3.69 60.3-4.94 117.04-5.45 181.47a.52.5-.6 0 1-.51.5c-13.94.35-27.86-.02-41.72.12q-10.52.1-21.03-.17Zm-202.33-17.88c-10.03 10.89-16.65 18.88-31.82 21.8-15.1 2.92-35.77 1.19-46.81-11.37-13.13-14.94-13.56-40.43-12.87-58.8q2.13-57.37 3.5-114.76a.56.41-89.3 0 1 .41-.55h61.75a.56.46-87.7 0 1 .45.6q-2.88 45.57-3.03 91.4c-.02 6.3 1.14 16.19 5.15 20.85 4.57 5.3 12.9 3.83 16.79-1.99q4.9-7.32 6.27-16.19c4.73-30.73 4.65-63.07 4.91-94.14a.53.46-89.4 0 1 .46-.52l63.75-.02a.49.48 1.7 0 1 .49.51q-6.61 89.88-6.21 180a1.28 1.24-.2 0 1-1.28 1.25h-60.75a.5.5 0 0 1-.5-.5v-17.5q0-.78-.66-.07Z"/><path fill="#183883" d="M78.26 123.35a1.75 1.29-3.1 0 1 1.13.74q7.78 14.37 16.65 28.11.96 1.49-.63.66-22.1-11.44-46-18.52-2.59-.76-.48-2.75 12.26-11.51 29.33-8.24Zm140.67 9.69a.9.9-62.6 0 1 .25.79q-.02.08-.42.19-25.1 7.2-48.27 19.26-.75.4-.29-.31 9.17-14.09 17.14-28.89a1.61 1.55-80 0 1 1.11-.81c12.27-2.06 21.15.51 30.48 9.77ZM86.09 157.63q1.5.4-.08.9-21.06 6.67-40.07 17.91-.56.33-.4-.17 5.27-16.65 18.35-28.12a.9.86-48.5 0 1 1.05-.09q9.78 6.52 21.15 9.57Zm116.75-9.46q12.91 11.2 18.18 27.54.32.98-.49.51-13.33-7.67-27.67-13.19-6.15-2.37-12.22-4.91-.77-.32.02-.52 11.28-2.96 20.95-9.47a1.05.97-40.7 0 1 1.23.04ZM87.32 172.51l5.47-11.57a.34.34-77.3 0 1 .31-.19h79.91a.34.34-9.6 0 1 .31.22l4.42 11.58a.34.34 78.3 0 1-.31.46l-89.8-.01a.34.34-77.8 0 1-.31-.49Zm110.04 45.84-130.07.21a.37.37-70.1 0 1-.2-.68l41.23-27.12a.37.37 73.2 0 0 .17-.31l.01-9.54a.37.37 89.6 0 1 .37-.37l49.02-.04a.37.37 6.6 0 1 .37.37l-.02 7.37a.37.37 18.5 0 0 .15.3l39.19 29.14a.37.37-29.1 0 1-.22.67Zm-108.58 9.93-6.02 8.32a.35.35-47 0 1-.56 0l-6.1-8.26a.35.35-16.8 0 1 .28-.55l12.11-.07a.35.35-72.3 0 1 .29.56Zm8.26-.28 8.07 10.91a1.59 1.09-48.5 0 1-.2 1.61q-3.3 4.58-6.57 8.91c-3.91 5.18-9.2-4.31-12.14-8.52a.87.57 48.4 0 1-.12-.83l7.44-11.79q1.72-2.73 3.52-.29Zm17.97.25-5.98 8.38a.34.34 45.8 0 1-.55.01l-6.11-8.3a.34.34-18.7 0 1 .27-.54l12.09-.09a.34.34 17.6 0 1 .28.54Zm7.7.54 7.46 10.28a.92.61-51 0 1-.08.88q-3.23 5.12-7.02 9.79c-3.72 4.57-9.01-4.69-11.89-8.84a.94.52 50.1 0 1-.17-.87l6.95-10.8q2.38-3.69 4.75-.44Zm15.97-.54-5.97 8.36a.34.34-41.4 0 1-.55 0l-6.1-8.28a.34.34 68.5 0 1 .28-.54l12.06-.08a.34.34-72.4 0 1 .28.54Zm7.53.07 7.93 10.82a.84.52-50.2 0 1-.12.81q-3.15 4.72-6.58 9.25c-4.32 5.71-9.93-4.83-12.16-7.85a1.56 1.38 44.4 0 1-.12-1.66l7-11.02q2-3.15 4.05-.35Zm15.71.14-5.73 8.06a.48.48 44.1 0 1-.78 0l-5.85-7.97a.48.48-19.4 0 1 .39-.76l11.58-.08a.48.48-72.9 0 1 .39.75Zm8.34-.43 8.28 11.19a.82.55-49.2 0 1-.1.82q-3.41 4.73-6.94 9.48c-3.98 5.37-10.12-5.87-12.2-8.59a.81.81 43.2 0 1-.03-.92l7.42-11.57q1.8-2.81 3.57-.41Zm17.56.15-5.94 8.57a.31.31 43.8 0 1-.5 0l-6.08-8.46a.31.31-23.8 0 1 .25-.49l12.01-.1a.31.31 17.3 0 1 .26.48Zm-115.53.26 8.17 10.96a.48.48 45.1 0 1 0 .57l-6.98 9.53a.48.48-71.3 0 1-.41.2l-6.36-.26a.48.48-88.7 0 1-.46-.48v-20.23a.48.48.3 0 1 .48-.48h5.18a.48.48-18.7 0 1 .38.19Zm118.87 20.84-6.78-9.21a.52.52-46.9 0 1 0-.62l8.12-10.99a.52.52 17.3 0 1 .42-.21h5.06a.52.52 0 0 1 .52.52v20.55a.52.52-88.8 0 1-.55.52l-6.4-.35a.52.52 73.5 0 1-.39-.21ZM77.6 250.3l4.72-6.44a.42.42-43.4 0 1 .68 0l4.64 6.51a.42.42-17.3 0 1-.35.66l-9.36-.07a.42.42 20.9 0 1-.33-.66Zm73.19-.12 4.73-6.31a.47.47-48.5 0 1 .76.01l4.48 6.49a.47.47-19.9 0 1-.4.73l-9.2-.17a.47.47 18.8 0 1-.37-.75Zm25.33.03 4.68-6.37a.47.47 81.2 0 1 .76.01l4.55 6.46a.47.47 71.4 0 1-.39.74l-9.23-.1a.47.47-72.3 0 1-.37-.74ZM104 250.1l4.43-6.05a.56.56 43.7 0 1 .91.01l4.39 6.07a.56.56 71.6 0 1-.46.89l-8.82-.03a.56.56 19.5 0 1-.45-.89Zm23.75.13 4.63-6.29a.47.47 44.2 0 1 .76 0l4.57 6.33a.47.47-17.1 0 1-.38.74l-9.2-.03a.47.47-70 0 1-.38-.75Zm-4.14 36.12c-7.62.51-9.84-7.61-18.25-1.39a1.55 1.37-60.2 0 1-.86.29H87.75a1.1.68 65.2 0 1-.74-.49l-17.17-24.84q-.46-.67.41-.67h126.5q1.16 0 .46.95l-18.05 24.46a1.47 1.43-71.2 0 1-1.16.59h-11.25q-.49 0-.9-.22c-7.42-3.97-10.91-1.12-17.68 1.86q-2.22.97-4.36-.15c-6.1-3.19-8.84-4.33-15.66-1.69q-3.1 1.2-4.54 1.3Zm-21.32 19.62-6.67-10.82q-.4-.66.38-.65l6 .01a1.63.86 12.9 0 0 .93-.25c8.16-6.37 10.58 1.74 18.03 1.53a1.95 1.75-59.5 0 0 .91-.29q5.43-3.42 11.64-2.91c7.68.64 11.67 5.8 19.54 1.27 4.42-2.53 7.71-3.2 11.84.18a1.36.75-15.1 0 0 .86.21l5.93-.3q.61-.03.1.8-5.53 8.96-7.34 11.17c-.97 1.19-3.37.25-4.6.26q-28.32.34-56.66.14a1.14.6-6.2 0 1-.89-.35ZM22.8 416.44c9.03 1.55 10.75-6.05 11.04-12.87q1.13-26.49 1.21-40.75a.57.45 90 0 1 .45-.57H51a.61.58-88.2 0 1 .58.65q-1.37 21.83-2.11 43.59c-.25 7.13-.56 14.4-5.87 19.73-5.78 5.8-15.85 6.93-23.85 6.02C6.6 430.74.68 422.59 1 410.12q.58-23.18 1.15-47.23a.66.6-89 0 1 .6-.64H18a.66.53-88 0 1 .52.7q-1.15 21.07-2.02 42.03-.21 4.99 1.74 8.31 1.55 2.63 4.56 3.15Zm70.29-38.69q-1.68 26.35-1.63 52.75a.75.46 90 0 1-.46.75H75.25a.71.57-87.3 0 1-.56-.76q1.8-26.34 2.33-52.74a.61.5 89.3 0 0-.53-.63l-14.26.89a.48.27-2.1 0 1-.51-.26l.59-15.19a.45.33 1.3 0 1 .44-.31H108a.49.48 1.1 0 1 .49.5l-.58 14.5a.87.72 2.9 0 1-.91.68l-13.49-.82a.67.38-86.6 0 0-.42.64Z"/><rect width="16.16" height="69.08" x="-8.08" y="-34.54" fill="#183883" rx=".27" transform="rotate(2.2 -10267.708 3520.862)"/><path fill="#183883" d="m190.89 381.24-2.82 49.25a.79.29-87.3 0 1-.32.76H175a.48.46 2.2 0 1-.48-.5q3.31-33.93 4.41-68a.57.52 1 0 1 .57-.5h20.75a.89.59 84.4 0 1 .63.77l5.98 40.75q.45 3.1 1.14.23l9.87-41.22a.68.64-83.2 0 1 .63-.53h21.25a.48.48-88.9 0 1 .48.5q-1.39 33.86-1.55 67.75a.5.43 90 0 1-.43.5l-14.25.21a.48.43 1 0 1-.49-.46q1.57-25.1 1.91-50.25a.26.14-89 0 0-.13-.25c-.42-.04-12.04 46.06-13.11 50.36a.84.66-81.3 0 1-.68.64H200a.64.53 84.3 0 1-.54-.54c-.68-4.27-7.86-49.71-8.15-49.71a.43.26 1.3 0 0-.42.24Z"/><rect width="15.28" height="69.08" x="-7.64" y="-34.54" fill="#183883" rx=".26" transform="rotate(2.3 -9646.93 11918.272)"/><path fill="#183883" d="m534.31 404.43-.81 26.07a.79.48-88.6 0 1-.5.78l-15.5-.1a.63.5-87.4 0 1-.49-.68q2.27-33.84 2.48-67.75a.51.5 0 0 1 .51-.5h37.75a.55.48 1 0 1 .55.5l-.54 14.75a.75.47 1.3 0 1-.75.45l-21.2-.28a.66.48-88.8 0 0-.49.64l-.36 9.69a.55.53-89 0 0 .54.58l17.75-.16a.67.56.8 0 1 .67.58l-.51 14.75a.59.39-88.2 0 1-.41.57l-18-.35a.68.47 1 0 0-.69.46Zm180.61-27.36.39-14.32a.52.44-88.7 0 1 .44-.5H730a.66.35-88 0 1 .33.68l-2.9 67.82a.44.43 2.6 0 1-.46.41q-9.06-.51-12.21.15-1.85.39-1.77-2.15.06-1.58-.98-.39-1.74 2.02-4.96 2.95c-30.89 8.92-31.7-59.17 7.14-54.35a.67.36 5.9 0 0 .73-.3Zm-8.11 40.97c8.68.32 7.51-21.05 7.56-26.46a.63.61-83.2 0 0-.47-.62c-17.05-4.07-17.13 26.72-7.09 27.08Zm-376.03-25.73q-.95 15.16-.48 19.86.69 6.77 7.21 4.84a.68.66-6.8 0 1 .88.67l-.85 13.32a.72.69-5.1 0 1-.56.64c-10.49 2.45-21.39.35-21.68-12.67q-.26-11 .69-26.47a.71.51-87.5 0 0-.49-.75h-4.75a.5.49.6 0 1-.5-.5l.32-12.25a.77.42-88.8 0 1 .43-.75h5.5a.61.51 1 0 0 .61-.49l.29-7.52a.86.75-7.9 0 1 .61-.7l12.93-3.85a.54.44 84.3 0 1 .56.56l-.34 11.43a.59.56.5 0 0 .59.57h7.75a.71.49-87.9 0 1 .47.75l-.49 12.25a.52.48-88.8 0 1-.48.5h-7.75a.6.46-87.4 0 0-.47.56Zm91.51 28.25q3.16.99 6.27-.28.71-.28.57.39l-2.12 10.08a.77.73 87.7 0 1-.5.57c-10.95 3.54-18.52-2.32-18.89-13.06-.51-14.98 10.82-16.97 22.01-20.87q2.53-.89 3.2-3.49c2-7.87-16.06-1.24-18.44.1q-.93.53-.81-.49l1.5-13.44a1.1 1.08 84.1 0 1 .73-.91c10.29-3.55 31.99-6.06 31.7 11.04q-.34 20.42-1.18 40.45a.58.41.5 0 1-.58.4l-13 .1a1.31 1.11.8 0 1-1.33-1.16l.99-20.43a.33.33-8.6 0 0-.45-.33c-4.83 1.85-13.94 2.73-10.37 10.5a1.49.6 71.9 0 0 .7.83Zm220.2-36.81q0 1.08.59.26 7.14-9.94 19.17-6.36c9.21 2.74 9.49 13.13 9.08 20.93q-.82 15.48-1.22 31.97a.53.43-89.2 0 1-.42.51l-13.94.22a.81.77-88.6 0 1-.78-.86c.6-10.64 2.16-23 .14-33.39-1.7-8.72-10.15-4.3-11.4 1.47-2.29 10.58-2.07 21.45-2.44 32.22a.52.48 1.1 0 1-.52.46l-14.5-.02a.61.4-86.9 0 1-.38-.65q1.94-25.85 1.9-51.76a.5.48-90 0 1 .48-.5h13.5a.75.5 0 0 1 .75.5l-.01 5Zm-359.95 41.72q-5.78 8.38-15.22 7.19c-14.82-1.87-13.08-16.54-12.34-26.92q.38-5.37.83-26.95a.55.44-89.4 0 1 .44-.54h14.25a.73.31-88.7 0 1 .3.74l-.97 28.75q-.06 1.94.99 5.4c1.4 4.64 5.67 5.34 8.88 2.24 5.43-5.25 4.74-28.16 4.84-36.56a.58.46-89.4 0 1 .46-.57h14.5a.63.6-87.4 0 1 .59.68q-2.03 25.62-1.84 51.32a.76.75-.8 0 1-.75.76l-13.25.2a.58.46-4 0 1-.57-.39c-.13-.86-.13-5.5-.38-5.65a.69.48-56.5 0 0-.76.3Zm97.21.03q0-1.07-.69-.12-6.45 8.92-16.56 7.11c-7-1.26-11.62-6.4-11.5-13.52q.32-19.33 1.23-40.33a.53.41 1.1 0 1 .52-.39h14a.51.47-88.3 0 1 .47.54q-.75 12.49-1.06 24.95c-.1 4.27.03 16.06 7.8 13.05q2.45-.94 3.47-3.36 1.85-4.39 2.25-9.19 1.08-12.64 1.15-25.34a.65.42-90 0 1 .42-.65h14.5a.7.62-87.4 0 1 .61.75q-2.07 25.71-1.86 51.5a.58.5 90 0 1-.5.58l-13.69-.05a.78.56 90 0 1-.56-.78v-4.75Zm216.91 0q-.01-.83-.54-.12-8.15 11.03-21.42 5.62c-8.2-3.34-6.69-16.9-6.44-24.2q.47-13.95.86-27.91a.65.63-89.5 0 1 .63-.64h14a.53.46-88.3 0 1 .46.56q-.89 15.66-1.01 25.69c-.07 5.12.8 17.59 9.83 11 5.05-3.69 4.8-30.18 4.71-36.51a.73.51 89.5 0 1 .51-.74h14.5a.59.52 1.8 0 1 .59.56q-1.94 25.81-1.92 51.69a.67.67 89.9 0 1-.67.67l-13.25-.04a.77.38.3 0 1-.76-.38l-.08-5.25Z"/><path fill="#fff" d="M706.81 418.04c-10.04-.36-9.96-31.15 7.09-27.08a.63.61-83.2 0 1 .47.62c-.05 5.41 1.12 26.78-7.56 26.46Z"/></svg>